<svg xmlns="http://www.w3.org/2000/svg" viewBox="0 0 100 100">
  <rect width="100" height="100" fill="#0a0a1a"/>
  <circle cx="50" cy="50" r="45" fill="none" stroke="#e94560" stroke-width="2"/>
  <path d="M50 15 L50 85 M15 50 L85 50" stroke="#1a1a2e" stroke-width="1" opacity="0.5"/>
  <circle cx="30" cy="30" r="4" fill="#e94560"/>
  <circle cx="70" cy="25" r="4" fill="#3498db"/>
  <circle cx="20" cy="70" r="4" fill="#2ecc71"/>
  <circle cx="75" cy="65" r="4" fill="#f1c40f"/>
  <circle cx="45" cy="75" r="4" fill="#9b59b6"/>
  <path d="M30 30 Q50 25 70 25 Q90 45 75 65 Q60 85 45 75 Q20 70 20 50 Q25 35 30 30" fill="none" stroke="#e94560" stroke-width="3" stroke-opacity="0.6"/>
  <path d="M20 70 Q40 60 45 75 Q70 65 75 65 Q85 50 70 25 Q50 35 30 30 Q20 45 20 50 Z" fill="none" stroke="#3498db" stroke-width="3" stroke-opacity="0.6"/>
</svg>
